<svg width="33" height="32" viewBox="0 0 33 32" fill="none" xmlns="http://www.w3.org/2000/svg">
<g filter="url(#filter0_d_126_728)">
<path d="M14.166 27C12.8193 27 12.1093 26.9561 12.0288 26.8683C12.3033 25.6276 12.5412 24.2113 12.7351 22.6157L13.2585 18.3632H8.26302C6.70401 18.3632 5.03887 18.4328 3.2676 18.5755C3.22734 18.4694 3.28956 17.7484 3.45424 16.409C3.61893 15.0695 3.73237 14.3486 3.79825 14.2425C5.09011 14.3852 6.73695 14.4547 8.73878 14.4547H13.7342L14.6455 7.04026H10.3673C9.1633 7.04026 7.72872 7.10247 6.06723 7.2269C6.02332 7.13907 6.08553 6.44007 6.24656 5.12626C6.40758 3.81244 6.52103 3.10613 6.5869 3C7.95195 3.14273 9.68663 3.21226 11.7946 3.21226H22.3161C23.9629 3.21226 25.7159 3.14273 27.575 3C27.6153 3.10613 27.5531 3.8161 27.392 5.12626C27.231 6.43641 27.1176 7.13541 27.0553 7.2269C25.8294 7.10247 24.4204 7.04026 22.8284 7.04026H18.5759L17.6647 14.4547H22.6857C24.2447 14.4547 25.9282 14.3852 27.7324 14.2425C27.7726 14.3486 27.7104 15.0695 27.5457 16.409C27.3811 17.7484 27.2676 18.4694 27.2017 18.5755C25.8916 18.4328 24.2264 18.3632 22.2063 18.3632H17.1853L16.6619 22.6157C16.5631 23.4355 16.4826 24.204 16.4277 24.9323C16.3399 26.0595 15.3262 27 14.199 27C14.1843 27 14.1734 27 14.1587 27H14.166ZM8.35818 13.9277C8.3472 13.3092 8.23375 12.4748 8.02881 11.4318C7.84582 10.4584 7.61527 9.54712 7.32981 8.69442L10.9126 7.65874C11.6811 9.60567 12.113 11.3074 12.2008 12.7603L8.36549 13.9277H8.35818ZM22.7735 13.8216L19.5457 12.8371C20.5778 11.2086 21.4488 9.46295 22.1551 7.60384C23.1834 7.88564 24.1093 8.19671 24.9364 8.5334C25.8294 8.90668 26.2319 9.16286 26.1441 9.30558C26.0782 9.41171 25.9721 9.49222 25.822 9.54346C25.5988 9.63129 25.3975 9.81793 25.2219 10.0997C25.0242 10.4181 24.7278 10.8792 24.3362 11.4831C23.7177 12.4748 23.1981 13.2543 22.7735 13.8216Z" fill="#EAD6FF"/>
</g>
<defs>
<filter id="filter0_d_126_728" x="0.255737" y="0" width="32.4885" height="32" filterUnits="userSpaceOnUse" color-interpolation-filters="sRGB">
<feFlood flood-opacity="0" result="BackgroundImageFix"/>
<feColorMatrix in="SourceAlpha" type="matrix" values="0 0 0 0 0 0 0 0 0 0 0 0 0 0 0 0 0 0 127 0" result="hardAlpha"/>
<feOffset dx="1" dy="1"/>
<feGaussianBlur stdDeviation="2"/>
<feComposite in2="hardAlpha" operator="out"/>
<feColorMatrix type="matrix" values="0 0 0 0 0.726242 0 0 0 0 0.46552 0 0 0 0 1 0 0 0 0.8 0"/>
<feBlend mode="normal" in2="BackgroundImageFix" result="effect1_dropShadow_126_728"/>
<feBlend mode="normal" in="SourceGraphic" in2="effect1_dropShadow_126_728" result="shape"/>
</filter>
</defs>
</svg>
