<svg width="83" height="71" viewBox="0 0 83 71" fill="none" xmlns="http://www.w3.org/2000/svg">
<path d="M28.0838 40.8926C26.536 40.8926 25.7291 40.8185 25.6715 40.6786C25.7538 39.987 25.8032 39.0401 25.8032 37.8381V34.9976H16.5407V33.1039C13.7249 34.306 11.2138 35.401 9.00724 36.3808L7.80518 31.6466L9.35304 31.1691V19.8812H7.54171C7.45938 24.9941 7.13828 29.012 6.59488 31.943C5.90328 35.6151 4.74239 38.5214 3.10396 40.6456C2.27239 39.0978 1.235 37.8875 0 37.0312C1.2597 35.3104 2.15713 32.9392 2.66759 29.9258C3.03809 27.6041 3.26862 24.2531 3.35919 19.8894H1.89366C1.5808 19.8894 1.10326 19.9224 0.469299 19.9718C0.386966 19.9141 0.337566 19.0908 0.337566 17.4935C0.337566 15.8963 0.378732 15.073 0.469299 15.0153C1.21853 15.0977 2.19006 15.1471 3.40036 15.1471H6.37258V8.00054C6.37258 5.41528 6.27378 2.99468 6.06795 0.722289C7.16298 0.664656 8.29095 0.681123 9.46831 0.763456C10.9009 0.878722 11.6254 1.06809 11.6254 1.32332C10.9338 2.41835 10.588 3.53808 10.588 4.68251V15.1471H13.7332C14.7953 15.1471 15.8409 15.1059 16.8783 15.0153C16.9606 15.073 17.01 15.8963 17.01 17.4935C17.01 19.0908 16.9689 19.9141 16.8783 19.9718C16.3596 19.9141 15.8162 19.8894 15.2399 19.8894H13.5603V29.7941L16.4008 28.8061L16.7877 30.6998H25.7867V28.7155H18.4673V15.4105H25.7867V13.3851H21.8677C21.0032 13.3851 19.7105 13.4428 17.9898 13.558C17.9075 13.4757 17.8581 12.7512 17.8581 11.3844C17.8581 10.0177 17.8992 9.29317 17.9898 9.21083C19.2495 9.3261 20.5421 9.38373 21.8677 9.38373H25.7867V7.9182C25.7867 7.51477 25.7538 6.97137 25.7044 6.27978C26.7665 6.22214 27.8615 6.23861 28.9813 6.32094C30.3562 6.43621 31.0478 6.62557 31.0478 6.88081C30.5868 7.28424 30.3562 7.6959 30.3562 8.13227V9.38373H34.2753C35.1398 9.38373 36.4324 9.3261 38.1532 9.21083C38.2355 9.29317 38.2849 10.0259 38.2849 11.3844C38.2849 12.7429 38.2437 13.4757 38.1532 13.558C36.8935 13.4428 35.6008 13.3851 34.2753 13.3851H30.3562V15.4105H37.9803V28.7155H30.3562V30.6998H34.9669C36.3418 30.6998 37.865 30.6257 39.5281 30.4857C39.6105 30.601 39.6599 31.3914 39.6599 32.8569C39.6599 34.3224 39.6187 35.1128 39.5281 35.2281C38.2931 35.0881 36.77 35.014 34.9669 35.014H30.3562V37.8545C30.3562 39.0566 30.3974 40.0117 30.488 40.695C30.4303 40.835 29.6235 40.9091 28.0756 40.9091L28.0838 40.8926ZM2.32179 14.2743C2.32179 13.0723 2.14889 11.4585 1.8031 9.4496C1.57256 7.78647 1.1856 6.04924 0.642198 4.23791L4.00139 3.42282C5.17875 6.95491 5.81272 10.2729 5.89505 13.3687L2.32179 14.2743ZM13.9555 14.2332L10.7692 13.3275C11.8066 10.3388 12.6052 6.97137 13.1815 3.20875L17.1829 4.15558V1.43859H39.1906V5.05301C39.1906 6.28801 39.2482 7.48184 39.3635 8.62627C39.2811 8.74154 38.499 8.79917 37.0417 8.79917C35.5844 8.79917 34.8187 8.74154 34.761 8.62627C34.8187 8.10757 34.8434 7.54771 34.8434 6.94667V5.26708H21.316V6.94667C21.316 7.54771 21.3407 8.10757 21.3984 8.62627C21.3654 8.74154 20.6491 8.79917 19.2413 8.79917C17.8334 8.79917 17.1418 8.74154 17.0841 8.62627C17.1418 7.93467 17.1665 7.21837 17.1665 6.46914V4.27085C15.8162 8.94737 14.7376 12.2654 13.939 14.2167L13.9555 14.2332ZM22.3946 20.5646H25.795V18.5392H22.3946V20.5646ZM22.3946 25.554H25.795V23.4874H22.3946V25.554ZM30.3645 20.5646H33.8554V18.5392H30.3645V20.5646ZM30.3645 25.554H33.8554V23.4874H30.3645V25.554Z" fill="white"/>
<path d="M46.3865 40.7197C46.016 40.1434 45.489 39.493 44.8139 38.7602C44.1388 38.0274 43.5542 37.4758 43.0685 37.1053C45.5055 34.4048 47.1851 31.0209 48.1072 26.9454C48.7659 24.0143 49.0952 20.2435 49.0952 15.6164V8.29695C49.0952 5.59642 48.9964 3.10173 48.7906 0.804633C49.935 0.746999 51.1289 0.763466 52.3639 0.845799C53.8541 0.961065 54.6033 1.15043 54.6033 1.40566C53.9117 2.78063 53.5659 4.16382 53.5659 5.53879V15.8304C54.4551 12.7265 55.0726 10.2153 55.4184 8.29695L58.9505 9.58958V4.76486H65.6277C66.1711 3.10173 66.5581 1.67736 66.7886 0.5C68.1636 0.788166 69.4644 1.13397 70.683 1.5374C71.9015 1.94083 72.4778 2.2043 72.4037 2.33603C72.3296 2.46776 72.2061 2.55833 72.0415 2.61596C71.7862 2.67359 71.5639 2.86296 71.3993 3.17583C71.2511 3.43106 71.037 3.83449 70.7571 4.37789C70.6747 4.55079 70.6089 4.68252 70.5842 4.76486H80.2336V12.5206C80.2336 15.6493 80.3489 18.2181 80.5794 20.227C80.5794 20.367 80.4641 20.4411 80.2336 20.4411C78.801 20.3011 77.0309 20.227 74.9396 20.227H64.261C62.1615 20.227 60.3996 20.3011 58.967 20.4411C58.827 20.4411 58.7529 20.367 58.7529 20.227C58.9258 19.626 58.9999 18.3745 58.967 16.4809V11.0139C58.7117 11.6726 58.3495 12.6771 57.8884 14.0273C57.0568 16.3574 56.4558 17.9299 56.0771 18.7615L53.5824 17.7241C53.5248 20.1364 53.3848 22.3594 53.1543 24.4013C53.8706 25.2905 55.3937 27.4147 57.7155 30.7739C58.0284 31.202 58.2342 31.4737 58.3165 31.589L54.9162 35.1622C54.2246 33.6967 53.2778 31.9924 52.0757 30.0329C51.0136 34.1989 49.1199 37.7557 46.3947 40.7115L46.3865 40.7197ZM46.6417 21.5114L43.2825 20.2599C44.2293 17.6747 44.8221 14.0767 45.0527 9.44961C45.9172 9.53194 46.7487 9.72131 47.5474 10.0095C48.4366 10.2976 48.8647 10.5693 48.84 10.8246C48.84 11.0222 48.7577 11.2115 48.5848 11.3844C48.2966 11.6973 48.1402 12.1419 48.1072 12.7182V12.9323C47.992 14.2249 47.8767 15.1882 47.7614 15.814C47.4733 18.0287 47.1028 19.9224 46.6417 21.4949V21.5114ZM56.1594 40.0281C56.0771 39.8882 56.0277 39.0484 56.0277 37.5334C56.0277 36.0185 56.0688 35.1952 56.1594 35.0799C57.5097 35.2528 59.321 35.3351 61.5852 35.3351H67.0521V32.6182H63.133C62.2438 32.6182 60.9347 32.6758 59.214 32.791C59.1316 32.7087 59.0822 31.9842 59.0822 30.6339C59.0822 29.2837 59.1234 28.5674 59.214 28.4768C60.4737 28.5921 61.7828 28.6497 63.133 28.6497H67.0521V26.1962H62.3591C60.9512 26.1962 59.3869 26.2703 57.6661 26.4102C57.5838 26.295 57.5344 25.5293 57.5344 24.1049C57.5344 22.6805 57.5755 21.8407 57.6661 21.5855C60.6548 21.9313 64.6315 22.1042 69.5962 22.1042H75.5818C77.5907 22.1042 79.5832 22.0219 81.5674 21.849C81.6497 21.9642 81.6992 22.7217 81.6992 24.1296C81.6992 25.5375 81.658 26.295 81.5674 26.4102C80.2748 26.2703 78.7105 26.1962 76.8744 26.1962H72.1814V28.6497H76.1005C76.965 28.6497 78.2576 28.5921 79.9784 28.4768C80.0607 28.5591 80.1101 29.2837 80.1101 30.6339C80.1101 31.9842 80.069 32.7005 79.9784 32.791C78.7187 32.6758 77.4261 32.6182 76.1005 32.6182H72.1814V35.3351H77.2614C78.7846 35.3351 80.4806 35.261 82.3414 35.1211C82.4237 35.2363 82.4731 36.0432 82.4731 37.5581C82.4731 39.0731 82.4319 39.8882 82.3414 40.0364C80.4477 39.8388 78.2659 39.7317 75.7959 39.7317H62.7049C60.8689 39.7317 58.687 39.8305 56.1594 40.0364V40.0281ZM63.4788 10.6517H75.4912V8.54395H63.4788V10.6517ZM63.4788 16.4232H75.4912V14.1838H63.4788V16.4232Z" fill="white"/>
<path d="M1.15266 70.2118L0 67.7501C0.864498 67.1902 1.71253 66.5562 2.55233 65.8317V61.2787H1.39966C1.0127 61.2787 0.625732 61.3034 0.246999 61.3446C0.205833 61.3199 0.181133 60.9164 0.181133 60.1425C0.181133 59.3686 0.205833 58.9569 0.246999 58.8993C0.872731 58.9651 1.63843 59.0063 2.54409 59.0063H4.86589V65.667C5.60689 66.9597 7.03948 67.6513 9.17191 67.7336C10.4563 67.7912 12.0947 67.7995 14.1037 67.7583C16.1949 67.7336 17.9239 67.6595 19.3071 67.5525C18.9613 68.2523 18.6979 69.0592 18.5332 69.9731C15.2152 70.1377 12.0947 70.1624 9.15544 70.0389C7.90398 69.9813 6.87482 69.7919 6.06795 69.4544C5.18699 69.0756 4.46246 68.4993 3.87789 67.7171C2.88989 68.6887 1.98423 69.5285 1.1609 70.2201L1.15266 70.2118ZM3.40859 56.2975C3.16159 55.8118 2.71699 55.2354 2.09126 54.5603C1.57256 53.9593 0.987997 53.3829 0.337566 52.8231L2.19829 51.3987C3.71322 52.6419 4.79179 53.7452 5.41752 54.7167L3.40859 56.2811V56.2975ZM12.1606 67.3466C11.3702 67.3466 10.9585 67.3219 10.9256 67.2643C10.9503 67.042 10.9668 66.8115 10.9668 66.5727V65.8811H8.31565C7.42645 65.8811 6.53725 65.9223 5.66452 66.0046C5.62335 65.9387 5.59865 65.5929 5.59865 64.9672C5.59865 64.3415 5.62335 64.0121 5.66452 63.9545C6.31495 64.0368 7.20415 64.078 8.31565 64.078H10.9668V63.3041H6.80895V60.2331C6.80895 58.9487 6.76778 57.936 6.68545 57.1867C6.68545 57.1291 6.72662 57.1044 6.80895 57.1044C7.47585 57.162 8.16745 57.1867 8.87551 57.1867H10.9668V56.454H8.68614C8.00278 56.454 7.24531 56.4869 6.40552 56.561C6.36435 56.5034 6.33965 56.1823 6.33965 55.5977C6.33965 55.0131 6.36435 54.692 6.40552 54.6344C7.03125 54.7003 7.78871 54.7414 8.68614 54.7414H10.9668V54.198C10.9668 54.0581 10.9503 53.8522 10.9256 53.5723C11.4525 53.5476 11.9959 53.5476 12.5558 53.597C13.2392 53.6546 13.5767 53.7452 13.5767 53.8687C13.4121 54.0087 13.3297 54.1569 13.3297 54.3051V54.7414H15.6927C16.3925 54.7414 17.1665 54.7085 18.031 54.6344C18.0721 54.692 18.0968 55.0131 18.0968 55.5977C18.0968 56.1823 18.0721 56.5034 18.031 56.561C17.3805 56.4951 16.5984 56.454 15.6927 56.454H13.3297V57.1867H17.6769V63.3041H13.3297V64.078H16.1291C17.0594 64.078 17.9898 64.0368 18.9037 63.9545C18.9449 64.0121 18.9696 64.3497 18.9696 64.9672C18.9696 65.5847 18.9449 65.9305 18.9037 66.0046C18.2203 65.9223 17.2982 65.8811 16.1291 65.8811H13.3297V66.5727C13.3297 66.8115 13.3462 67.042 13.3709 67.2643C13.3544 67.3219 12.951 67.3466 12.1606 67.3466ZM5.85389 54.4615C5.81272 54.4368 5.78802 53.9346 5.78802 52.9548C5.78802 51.975 5.81272 51.4563 5.85389 51.3905C6.78425 51.4893 7.85458 51.5387 9.04841 51.5387H15.4786C16.3843 51.5387 17.4546 51.4893 18.6979 51.3905C18.739 51.4563 18.7637 51.9833 18.7637 52.9548C18.7637 53.9263 18.739 54.4286 18.6979 54.4615C18.4344 54.4203 18.0557 54.3956 17.5699 54.3956H16.4419V53.2924H7.97808V54.3956H6.91598C6.57018 54.3956 6.21615 54.4203 5.85389 54.4615ZM8.88374 59.5579H10.975V58.7428H8.88374V59.5579ZM8.88374 61.8139H10.975V60.9988H8.88374V61.8139ZM13.3297 59.5579H15.5033V58.7428H13.3297V59.5579ZM13.3297 61.8139H15.5033V60.9988H13.3297V61.8139Z" fill="#EFB066"/>
<path d="M26.8489 70.4424C26.0585 70.4424 25.6303 70.4094 25.5727 70.3353C25.6386 69.6684 25.6797 68.8616 25.6797 67.9147V65.4695C24.5765 66.9597 23.3991 68.2029 22.1476 69.1909C21.8101 68.4087 21.3325 67.676 20.7068 66.9761C21.4478 66.5069 22.197 65.8811 22.9545 65.1072C23.712 64.3333 24.3706 63.5182 24.9305 62.6537H23.1768C22.7898 62.6537 22.2053 62.6784 21.4231 62.736C21.3819 62.6948 21.3572 62.2914 21.3572 61.5339C21.3572 60.7765 21.3819 60.3648 21.4231 60.3154C22.0077 60.3813 22.7157 60.4224 23.5555 60.4224H25.688V59.5003C25.688 59.2533 25.6715 58.9157 25.6468 58.4958C26.1902 58.4711 26.7501 58.4711 27.3182 58.5205C28.018 58.5782 28.3638 58.6687 28.3638 58.7922C28.1415 59.0392 28.0262 59.3109 28.0262 59.6073V60.4224H29.9281C30.3562 60.4224 30.9902 60.3977 31.83 60.3401C31.8712 60.3813 31.8959 60.7847 31.8959 61.5422C31.8959 62.2996 31.8712 62.6948 31.83 62.7195C31.4924 62.6784 31.0396 62.6537 30.455 62.6537H29.0554C30.348 63.724 31.336 64.7696 32.0029 65.7905L30.3727 67.4619C29.8869 66.5809 29.1048 65.6341 28.0345 64.5967V68.9192C28.0345 69.5202 28.0591 69.9895 28.1003 70.3436C28.0756 70.4094 27.664 70.4506 26.8653 70.4506L26.8489 70.4424ZM21.6207 54.6673C21.5631 54.1075 21.349 53.4241 20.9703 52.6172C25.1446 52.2385 28.4132 51.7281 30.7679 51.0694L32.2087 53.1607C30.8008 53.5065 29.0883 53.8193 27.0712 54.0992C25.3422 54.338 23.5308 54.5274 21.6207 54.6673ZM23.1027 59.2286C22.9792 58.7264 22.7569 58.183 22.4358 57.5984C22.1559 57.0385 21.8101 56.4869 21.3902 55.927L23.1686 55.1366C24.0331 56.1493 24.6423 57.195 25.0046 58.2735L23.1027 59.2368V59.2286ZM26.3219 58.3476C26.2396 57.8866 26.0749 57.3679 25.8444 56.7833C25.5974 56.174 25.3257 55.6306 25.054 55.1778L26.9559 54.5685C27.5981 55.5977 28.0592 56.6186 28.3309 57.6149L26.3219 58.3476ZM30.1833 59.1216L28.3226 58.5535C28.973 57.3102 29.5 55.9929 29.8869 54.585L32.2664 55.1943L32.2005 55.3013C33.1226 54.8155 34.0118 54.2145 34.8763 53.5064C35.8232 52.7243 36.5477 51.9586 37.0499 51.2094C37.6757 51.4893 38.2438 51.8104 38.746 52.1727C39.2647 52.5596 39.4623 52.8231 39.3553 52.963C39.2729 53.0618 39.1494 53.1277 39.0012 53.1689C38.7378 53.2347 38.4908 53.4159 38.2685 53.6876C37.8815 54.091 37.4204 54.5356 36.8935 55.0214C35.9467 55.8529 34.9422 56.6022 33.8883 57.2526C33.3861 56.5445 32.8098 55.9353 32.1511 55.433C31.229 57.2691 30.5785 58.4958 30.1916 59.1133L30.1833 59.1216ZM32.8427 70.4012C32.3405 69.5696 31.7477 68.8451 31.0643 68.2523C32.4969 67.6513 33.806 66.8938 34.9916 65.9717C36.276 64.959 37.2475 63.864 37.9144 62.6948C38.5566 62.9583 39.1247 63.2712 39.627 63.6334C40.1539 64.0204 40.368 64.3003 40.2527 64.465C40.1704 64.5885 40.0469 64.6791 39.8987 64.7367C39.6517 64.8355 39.4129 65.0413 39.1906 65.3624C38.5319 66.2022 37.8239 66.935 37.0582 67.5772C35.8067 68.6887 34.3988 69.6273 32.8427 70.393V70.4012ZM34.0283 63.0242C33.4273 62.2338 32.8262 61.6163 32.2087 61.1881C33.1967 60.6694 34.1518 60.0437 35.0739 59.3109C36.1031 58.5041 36.8935 57.7137 37.4369 56.9315C38.0462 57.2114 38.606 57.5408 39.1083 57.9113C39.627 58.2982 39.8163 58.5699 39.6928 58.7017C39.594 58.8005 39.4705 58.8663 39.3141 58.9075C39.0671 58.9651 38.8119 59.1298 38.5649 59.4097C38.1038 59.8873 37.6263 60.3401 37.124 60.7847C36.1937 61.5916 35.1645 62.3408 34.0365 63.0159L34.0283 63.0242Z" fill="#EFB066"/>
<path d="M44.6657 70.4424C44.2788 69.899 43.6366 69.265 42.7474 68.5405C45.7114 67.2478 47.5639 64.819 48.3049 61.254H45.275V59.9778C44.8304 60.5377 44.3199 61.0811 43.7518 61.608C42.945 60.8012 42.2616 60.1837 41.7018 59.772C42.6321 59.0639 43.4801 58.1253 44.2294 56.9727C44.9539 55.8447 45.522 54.6179 45.9419 53.3006C46.6253 53.4817 47.251 53.7205 47.8191 54.0087C48.4201 54.3133 48.6836 54.5603 48.6095 54.7414C48.5519 54.8814 48.4531 54.9884 48.3131 55.079C48.0908 55.2354 47.9014 55.4989 47.745 55.8694C47.2592 56.9562 46.6829 57.9771 46.0325 58.9404H56.6452C55.2949 57.3679 54.2493 55.5648 53.5083 53.5311H50.9395C50.1738 53.5311 49.3258 53.5641 48.3872 53.6382C48.346 53.5806 48.3213 53.1607 48.3213 52.362C48.3213 51.5634 48.346 51.1353 48.3872 51.0694C49.3917 51.1682 50.5443 51.2176 51.8534 51.2176H55.3444C55.789 52.9054 56.497 54.4286 57.4768 55.7953C58.5224 57.2691 59.7574 58.3888 61.1735 59.138C60.9265 59.3768 60.6219 59.7226 60.2761 60.1919C59.9303 60.6612 59.6586 61.0729 59.461 61.4351C58.7776 60.9905 58.1107 60.4554 57.4521 59.8296V60.019C57.2956 63.0653 57.131 65.2801 56.9498 66.6386C56.744 68.03 56.4641 68.9439 56.1183 69.372C55.6737 69.899 55.0397 70.2201 54.2164 70.3353C53.7718 70.393 52.7673 70.4012 51.2112 70.3765C51.1536 69.4955 50.8901 68.6887 50.4208 67.9312C51.3265 68.0135 52.2239 68.0547 53.1131 68.0547C53.4919 68.0547 53.7718 67.9559 53.9694 67.7665C54.1917 67.5442 54.3811 66.9267 54.5375 65.9305C54.6939 64.9261 54.8257 63.3782 54.9327 61.2705H50.9231C50.4455 63.5017 49.7045 65.3624 48.6754 66.8691C47.6462 68.3758 46.3124 69.5696 44.6575 70.4588L44.6657 70.4424Z" fill="#EFB066"/>
<path d="M67.011 70.4835C66.2041 70.4835 65.7595 70.4506 65.6772 70.3765C65.7924 69.3062 65.8418 67.9559 65.8418 66.3257V62.2749C65.175 64.2262 64.4422 65.7329 63.6518 66.8115C63.4871 66.2434 63.1084 65.4694 62.5238 64.4897C63.1496 63.6828 63.7506 62.6207 64.3187 61.3116C64.8621 60.0602 65.2902 58.7922 65.5948 57.5078H64.3187C63.8988 57.5078 63.4871 57.5325 63.0672 57.5737C63.0261 57.549 63.0014 57.1373 63.0014 56.3387C63.0014 55.5401 63.0261 55.1366 63.0672 55.1037C63.4048 55.1449 63.8576 55.1696 64.4422 55.1696H65.8418V53.0207C65.8418 52.2138 65.8089 51.4728 65.7348 50.8059C66.3194 50.7812 66.9204 50.7812 67.5297 50.8224C68.2954 50.88 68.6823 50.9706 68.6823 51.0941C68.3448 51.761 68.1801 52.4279 68.1801 53.103V55.1696H69.4316C69.8597 55.1696 70.2714 55.1449 70.6666 55.1037C70.7077 55.1284 70.7324 55.5401 70.7324 56.3387C70.7324 57.1373 70.7077 57.5408 70.6666 57.5737C70.3784 57.5325 69.9667 57.5078 69.4316 57.5078H68.1801V58.8252C68.5259 59.2286 69.0199 59.8461 69.6539 60.6777C70.2878 61.5092 70.6913 62.0609 70.8724 62.3408L69.5139 64.3086C69.2093 63.6087 68.7647 62.7772 68.1801 61.8056V68.2605C68.1801 69.0921 68.213 69.8084 68.2871 70.393C68.2295 70.4588 67.8096 70.5 67.011 70.5V70.4835ZM78.1013 70.4835C77.2779 70.4835 76.8415 70.4506 76.7839 70.3765C76.8498 69.6767 76.891 68.8369 76.891 67.8489V60.2495H74.174C73.9681 64.6955 72.9801 68.0629 71.21 70.36C71.0288 70.0966 70.7407 69.8002 70.3537 69.4626C69.9667 69.125 69.6209 68.8945 69.3328 68.7545C70.3455 67.3878 71.0535 65.667 71.4405 63.5758C71.704 62.1844 71.8357 60.4554 71.8357 58.397V52.362L73.7788 52.9054C76.1335 52.362 77.953 51.761 79.2292 51.1106C79.7561 51.6128 80.2007 52.1315 80.5465 52.6749C80.9088 53.243 81.0076 53.5641 80.8347 53.6382C80.7112 53.6793 80.5712 53.6793 80.4148 53.6382C80.1678 53.5805 79.8632 53.6135 79.5174 53.7452C77.8872 54.2721 76.117 54.7085 74.2151 55.0378V57.9195H78.0766C79.2704 57.9195 80.5548 57.8619 81.9215 57.7548C81.9627 57.8372 81.9874 58.2818 81.9874 59.0804C81.9874 59.879 81.9627 60.2989 81.9215 60.3236C81.6169 60.2825 81.1723 60.2578 80.6042 60.2578H79.2868V65.3377C79.2868 67.3137 79.3527 69.0015 79.4927 70.393C79.3939 70.4588 78.9246 70.5 78.093 70.5L78.1013 70.4835Z" fill="#EFB066"/>
</svg>
