<svg width="33" height="32" viewBox="0 0 33 32" fill="none" xmlns="http://www.w3.org/2000/svg">
<g filter="url(#filter0_d_126_726)">
<path d="M7.48149 26.9858C6.44983 26.9858 5.92216 26.9444 5.90186 26.8616C6.00672 26.4095 6.10481 25.802 6.19614 25.0324L6.416 23.2032H4.72137C4.16326 23.2032 3.59839 23.2274 3.0166 23.2792C2.97262 23.2447 3.0166 22.6959 3.14175 21.626C3.2669 20.5561 3.36161 20.0074 3.41573 19.9729C3.83516 20.0246 4.39665 20.0488 5.10021 20.0488H6.79484L6.94029 18.8478H4.04149L4.60299 14.1886L5.16448 9.52938H8.03622L8.16813 8.42843H6.62233C6.11496 8.42843 5.59744 8.45259 5.06639 8.50436C5.02241 8.46985 5.063 7.928 5.18816 6.87537C5.31331 5.82274 5.40464 5.28089 5.45876 5.24638C5.82745 5.29815 6.34159 5.32231 6.99779 5.32231H8.54359L8.67551 4.22136C8.71271 3.9211 8.74316 3.52075 8.77022 3.02032C9.46363 2.98581 10.174 2.99616 10.9046 3.04448C11.7806 3.11005 12.2102 3.22049 12.1899 3.3689C11.8923 3.66916 11.7231 3.99358 11.6792 4.3456L11.5608 5.32231H13.2791C13.8676 5.32231 14.4427 5.29815 15.0075 5.24638C15.0515 5.28089 15.0109 5.82274 14.8858 6.87537C14.7606 7.928 14.6693 8.46985 14.6152 8.50436C14.2126 8.45259 13.641 8.42843 12.9036 8.42843H11.1853L11.0534 9.52938H13.8034C14.9331 8.84603 16.0899 7.86588 17.2738 6.59927C18.3258 5.46381 19.2018 4.31109 19.8986 3.14112H22.8955C23.5348 4.49401 24.2654 5.69504 25.0874 6.74767C26.0243 7.9349 26.9951 8.79426 27.9929 9.32921C27.2488 10.2162 26.5384 11.2654 25.8687 12.4871C25.3106 12.104 24.6375 11.4931 23.8527 10.6579L23.6836 12.0626H17.0776L17.2264 10.834C16.4924 11.5035 15.6976 12.104 14.8486 12.639C14.6287 11.8693 14.331 11.0928 13.9488 10.3094L12.9205 18.8547H9.95071L9.80526 20.0557H11.4762C12.0479 20.0557 12.6093 20.0315 13.1539 19.9798C13.1979 20.0143 13.1539 20.563 13.0288 21.6329C12.9036 22.7028 12.8089 23.255 12.7548 23.2861C12.3523 23.2343 11.7975 23.2101 11.094 23.2101H9.42304L9.20318 25.0393C9.18626 25.1843 9.16935 25.3258 9.15582 25.4604C9.06449 26.3025 8.32373 26.9927 7.50178 26.9927C7.49163 26.9927 7.48149 26.9927 7.47134 26.9927L7.48149 26.9858ZM7.07559 13.029H8.13093L8.25608 12.0005H7.20074L7.07559 13.029ZM6.67307 16.3594H7.72841L7.85356 15.3309H6.79822L6.67307 16.3594ZM10.1672 13.029H11.1988L11.324 12.0005H10.2923L10.1672 13.029ZM9.76805 16.3594H10.7997L10.9249 15.3309H9.8932L9.76805 16.3594ZM13.844 26.9582C13.0592 26.9582 12.6296 26.9168 12.5586 26.834C12.7582 25.9815 12.9442 24.846 13.1167 23.4276L13.5294 19.9936L13.942 16.5596C14.1146 15.1239 14.2025 13.978 14.2093 13.1256C14.2194 13.0428 14.2735 13.0013 14.3716 13.0013C15.1462 13.0842 16.1001 13.1256 17.2298 13.1256H20.1286L18.7824 24.3007C18.6505 25.4017 18.3596 26.1195 17.9097 26.4543C17.6222 26.6545 17.3144 26.7891 16.9761 26.8547C16.7394 26.9064 16.3944 26.9306 15.9343 26.9306C16.0087 26.0436 15.9276 25.2257 15.6908 24.4768H16.2793C16.3774 24.4768 16.4349 24.4008 16.4552 24.2524L16.6954 22.2472H15.5656L15.2883 24.5527C15.2409 24.9461 15.2037 25.3327 15.1733 25.7123C15.1225 26.3887 14.5374 26.9582 13.8744 26.9582C13.8642 26.9582 13.8541 26.9582 13.844 26.9582ZM16.2523 16.5596H17.382L17.4937 15.6312H16.3639L16.2523 16.5596ZM15.8667 19.7416H16.9964L17.1047 18.8409H15.9749L15.8667 19.7416ZM18.8771 9.21877H22.7568C22.422 8.73559 22.1108 8.25932 21.8233 7.78995C21.688 7.53801 21.5053 7.17908 21.2651 6.71316C21.184 6.57856 21.1298 6.47848 21.1062 6.4129C20.5244 7.29987 19.7836 8.23516 18.8771 9.21877ZM20.7206 23.0755C19.9189 23.0755 19.4961 23.041 19.4555 22.9755C19.6077 22.2403 19.7329 21.4811 19.8276 20.6942L20.1016 18.4129L20.3789 16.1075C20.4669 15.3896 20.5278 14.5958 20.5683 13.7261C21.1468 13.6916 21.7759 13.7019 22.4558 13.7503C23.2676 13.8158 23.6633 13.9263 23.643 14.0747C23.3623 14.5095 23.1627 14.8616 23.0511 15.1273C22.8481 15.5794 22.7128 16.0971 22.6418 16.6804L22.263 19.8383C22.1175 21.0566 22.033 22.1023 22.0093 22.9686C21.9349 23.0341 21.5053 23.0686 20.7206 23.0686V23.0755ZM20.5785 26.9099C20.5717 26.0229 20.4229 25.1463 20.1354 24.28C20.6563 24.2973 21.2854 24.3042 22.0228 24.3042C22.2528 24.2869 22.3814 24.1696 22.4084 23.9522L23.0849 18.3404C23.3623 16.035 23.5179 14.1299 23.5517 12.6286C24.2756 12.5941 25.0129 12.6044 25.7571 12.6528C26.6805 12.7183 27.1371 12.8288 27.1169 12.9772C26.8361 13.412 26.6365 13.7641 26.5249 14.0298C26.322 14.4819 26.1867 14.9996 26.1156 15.5829L25.7808 18.3646L25.1009 24.0005C25.0197 24.67 24.8946 25.1774 24.722 25.5294C24.5259 25.9297 24.235 26.23 23.8527 26.4302C23.2405 26.7477 22.1514 26.9064 20.5785 26.9064V26.9099Z" fill="#FF7173"/>
</g>
<defs>
<filter id="filter0_d_126_726" x="0" y="0" width="32.9929" height="31.9927" filterUnits="userSpaceOnUse" color-interpolation-filters="sRGB">
<feFlood flood-opacity="0" result="BackgroundImageFix"/>
<feColorMatrix in="SourceAlpha" type="matrix" values="0 0 0 0 0 0 0 0 0 0 0 0 0 0 0 0 0 0 127 0" result="hardAlpha"/>
<feOffset dx="1" dy="1"/>
<feGaussianBlur stdDeviation="2"/>
<feComposite in2="hardAlpha" operator="out"/>
<feColorMatrix type="matrix" values="0 0 0 0 1 0 0 0 0 0.377009 0 0 0 0 0.385784 0 0 0 0.8 0"/>
<feBlend mode="normal" in2="BackgroundImageFix" result="effect1_dropShadow_126_726"/>
<feBlend mode="normal" in="SourceGraphic" in2="effect1_dropShadow_126_726" result="shape"/>
</filter>
</defs>
</svg>
