<svg width="35" height="33" viewBox="0 0 35 33" fill="none" xmlns="http://www.w3.org/2000/svg">
<g filter="url(#filter0_d_126_729)">
<path d="M7.7208 28C6.4996 28 5.84397 27.9568 5.75031 27.8703C6.05651 26.5086 6.33749 24.7831 6.59686 22.6937L7.23448 17.4883C6.41314 18.2196 5.66745 18.8212 5.00102 19.2931C4.94698 18.8752 4.79208 18.2196 4.53631 17.3334C4.29135 16.4977 4.068 15.824 3.86987 15.3197C5.11989 14.5019 6.3555 13.5257 7.57671 12.391C8.89517 11.1698 9.97588 9.96657 10.8188 8.78139C12.9442 9.77564 13.9853 10.3232 13.9385 10.4277C13.9169 10.4637 13.8736 10.4709 13.8052 10.4529C13.7187 10.4529 13.6575 10.4745 13.6287 10.5177C13.5963 10.561 13.5494 10.6222 13.4882 10.7015C13.4269 10.7807 13.3729 10.8455 13.3333 10.896H18.9025L19.1115 9.19566H16.5754C16.017 9.19566 15.1741 9.23169 14.0502 9.30013C14.0033 9.2461 14.0502 8.6409 14.1942 7.48094C14.3383 6.32098 14.4356 5.71578 14.4968 5.66174C15.3254 5.73019 16.1575 5.76621 16.9933 5.76621H19.5293L19.6915 4.43334C19.7383 4.05149 19.7779 3.57958 19.8139 3.02121C20.6569 2.98519 21.5179 2.996 22.4004 3.04643C23.4739 3.11487 23.9999 3.23015 23.9819 3.38505C23.6541 3.7705 23.4667 4.15956 23.4199 4.56302L23.2722 5.76621H25.9416C26.7269 5.76621 27.6203 5.72298 28.6253 5.63653C28.6685 5.70497 28.6181 6.32098 28.4776 7.48094C28.3371 8.6409 28.2327 9.2569 28.1714 9.32535C27.4509 9.23889 26.5648 9.19566 25.5201 9.19566H22.8507L22.6418 10.896H25.8839C26.8421 10.896 27.9192 10.8528 29.1152 10.7663C29.1585 10.8347 29.108 11.4543 28.9639 12.6215C28.8198 13.7887 28.719 14.3903 28.6649 14.4263C28.3047 14.3723 27.8112 14.347 27.1844 14.347H25.6678L25.4732 15.9429H26.8854C27.3717 15.9429 27.84 15.9177 28.2795 15.8636C28.3263 15.8997 28.2795 16.4941 28.139 17.654C27.9949 18.814 27.8976 19.412 27.84 19.4444C27.5158 19.3904 27.0547 19.3651 26.4639 19.3651H25.0518L24.4754 24.0482C24.3601 24.974 24.18 25.6693 23.9314 26.1412C23.6432 26.6455 23.2038 27.031 22.613 27.2903C22.0582 27.5353 21.3774 27.701 20.5632 27.7875C19.9616 27.8559 19.1043 27.8919 17.9875 27.8919C17.9551 26.7428 17.7246 25.554 17.2995 24.3364C18.4739 24.4229 19.4393 24.4409 20.1958 24.3904C20.4047 24.3904 20.5488 24.3652 20.6245 24.3112C20.7001 24.2571 20.7505 24.1455 20.7722 23.9726L21.3377 19.3687H16.0026C17.159 21.0258 17.9155 22.4452 18.2757 23.6303L14.7598 25.4351C14.5004 24.1455 13.7728 22.6037 12.5804 20.8061L15.4767 19.3687H13.5422C12.8974 19.3687 12.2562 19.394 11.6222 19.448C11.5753 19.412 11.6222 18.8104 11.7663 17.6432C11.9103 16.476 12.0148 15.8384 12.0797 15.734C13.3513 15.8744 14.9579 15.9429 16.8924 15.9429H21.7556L21.9501 14.347H12.0112L12.2706 12.2289C12.0652 12.4918 11.7374 12.8809 11.2907 13.4068L10.401 20.6512L9.95787 24.2607C9.87141 24.9524 9.80657 25.5792 9.75974 26.1412C9.67328 27.1534 8.76909 28 7.75682 28C7.74602 28 7.73161 28 7.7208 28ZM6.32308 11.2886C5.98806 10.1899 5.52696 9.10921 4.94338 8.04651C5.99167 7.45212 7.06877 6.68121 8.17109 5.73019C9.27342 4.77917 10.1452 3.88578 10.79 3.05003C11.633 3.43548 12.3895 3.87857 13.0595 4.38291C13.744 4.90525 14.0069 5.25468 13.8448 5.42759C13.7259 5.55007 13.5638 5.64734 13.3657 5.71578C13.0415 5.80224 12.7065 6.02919 12.3678 6.39663C11.8095 6.95499 11.1611 7.56379 10.4154 8.22663C8.98883 9.48025 7.62354 10.5033 6.32668 11.285L6.32308 11.2886Z" fill="#AEE1FF"/>
</g>
<defs>
<filter id="filter0_d_126_729" x="0.869873" y="0" width="33.2604" height="33" filterUnits="userSpaceOnUse" color-interpolation-filters="sRGB">
<feFlood flood-opacity="0" result="BackgroundImageFix"/>
<feColorMatrix in="SourceAlpha" type="matrix" values="0 0 0 0 0 0 0 0 0 0 0 0 0 0 0 0 0 0 127 0" result="hardAlpha"/>
<feOffset dx="1" dy="1"/>
<feGaussianBlur stdDeviation="2"/>
<feComposite in2="hardAlpha" operator="out"/>
<feColorMatrix type="matrix" values="0 0 0 0 0.311974 0 0 0 0 0.757553 0 0 0 0 1 0 0 0 0.71 0"/>
<feBlend mode="normal" in2="BackgroundImageFix" result="effect1_dropShadow_126_729"/>
<feBlend mode="normal" in="SourceGraphic" in2="effect1_dropShadow_126_729" result="shape"/>
</filter>
</defs>
</svg>
