<svg width="35" height="32" viewBox="0 0 35 32" fill="none" xmlns="http://www.w3.org/2000/svg">
<g filter="url(#filter0_d_126_727)">
<path d="M5.84171 27C5.6497 26.7801 5.33901 26.5043 4.9166 26.1761C4.4907 25.848 4.1451 25.6141 3.8728 25.4779C4.72111 24.6331 5.36694 23.5684 5.81029 22.2837C6.12098 21.404 6.35488 20.3148 6.51546 19.0127L7.01467 14.9562H13.2495L12.6735 19.6445L12.101 24.3085C12.0661 24.5947 12.0312 24.7972 11.9998 24.9159C12.5932 24.4935 13.1553 23.9768 13.6859 23.3694H12.9249L13.4415 19.1628C13.637 17.5744 13.7487 16.171 13.7802 14.9562C13.7906 14.8724 13.8535 14.8305 13.9722 14.8305C14.7716 14.9143 15.763 14.9562 16.9465 14.9562H19.9382L18.9049 23.3694H18.0671C18.3184 23.6557 18.5523 23.9524 18.7688 24.2561C19.3971 23.2612 19.8265 21.8334 20.0534 19.9727L20.6713 14.9527H23.7888C25.0211 14.9527 26.0649 14.9108 26.9202 14.827C27.0389 14.827 27.0912 14.8689 27.0807 14.9527C26.805 16.2199 26.5676 17.6721 26.3686 19.3129L25.831 23.6975C25.8135 23.8337 25.7891 23.9978 25.7577 24.1933C25.7262 24.3888 25.7158 24.5005 25.7297 24.5354C25.7367 24.6017 25.7856 24.6366 25.8694 24.6366H26.023C26.0893 24.6366 26.1452 24.6122 26.1836 24.5598C26.2604 24.4935 26.3197 24.3329 26.3686 24.0781C26.4559 23.7743 26.5536 23.1914 26.6583 22.3291C27.0144 22.7166 27.5381 23.0238 28.2188 23.2402C28.0024 24.4551 27.8104 25.251 27.6463 25.6211C27.4578 26.0609 27.1994 26.3716 26.8713 26.5601C26.5746 26.7626 26.208 26.8639 25.7681 26.8639H24.857C24.2321 26.8639 23.7818 26.6788 23.506 26.3053C23.3314 26.0854 23.2302 25.8061 23.2023 25.4675C23.1778 25.1114 23.2162 24.5284 23.314 23.7185L23.485 22.3256L23.0103 22.6817C22.916 22.4792 22.6961 22.1336 22.3505 21.6414C22.2946 21.5576 22.2492 21.4982 22.2213 21.4633C21.7605 23.9629 20.8843 25.8061 19.5926 26.9895C19.2505 26.602 18.7862 26.1866 18.1997 25.7467L17.2362 26.3821C16.9814 25.841 16.5276 25.1393 15.8713 24.277C15.4733 24.7658 14.9706 25.272 14.3666 25.7991C13.7837 26.2878 13.2356 26.6858 12.7259 26.9895C12.4606 26.6858 12.0766 26.3472 11.5843 25.9771C11.4238 26.1796 11.2178 26.3577 10.963 26.5078C10.4358 26.794 9.50722 26.9372 8.17367 26.9372C8.18065 26.1936 8.05847 25.4011 7.80712 24.5563C8.5123 24.5912 8.9766 24.5912 9.20002 24.5563C9.40249 24.5563 9.5142 24.4621 9.53864 24.277L9.71319 22.8562H8.21906C7.67097 24.5633 6.87852 25.9387 5.83473 26.986L5.84171 27ZM12.9668 9.40902C11.1096 9.40902 9.85632 9.15418 9.207 8.64799C8.62052 8.19068 8.40059 7.37379 8.54721 6.19035L8.78459 4.26334H16.6428L16.7161 3.68035C16.723 3.61402 16.7335 3.5058 16.744 3.36267C16.7545 3.21954 16.7614 3.10434 16.7719 3.02056C17.5888 2.98565 18.4057 2.99612 19.2261 3.04499C20.2315 3.11132 20.7237 3.22303 20.7062 3.37314C20.4863 3.50929 20.3676 3.65242 20.3502 3.80253L20.2943 4.25985H24.7034C25.9357 4.25985 27.4054 4.2005 29.109 4.08181C29.1509 4.16559 29.1195 4.61244 29.0217 5.42583C28.924 6.23923 28.8402 6.68607 28.7808 6.76985C27.5625 6.65116 26.1417 6.59181 24.5184 6.59181H11.6402C11.6646 6.81174 11.7938 6.96186 12.0277 7.04913C12.2616 7.13291 12.684 7.17481 13.2914 7.17481H22.0607C22.9893 7.17481 24.0261 7.1399 25.1642 7.07357C26.3721 7.00724 27.2029 6.91997 27.6533 6.81873C27.6533 6.97233 27.6602 7.18179 27.6777 7.45059C27.6952 8.27795 27.7196 8.83651 27.751 9.12277C27.0005 9.30779 25.241 9.40204 22.4692 9.40204H12.9633L12.9668 9.40902ZM8.92772 14.4535L9.47929 9.96758H26.2569L25.7053 14.4535H8.92772ZM8.76016 20.7651H9.97501L10.0693 20.0041H8.90328C8.88234 20.1717 8.8579 20.3008 8.82997 20.3846C8.80903 20.5522 8.78459 20.6814 8.75666 20.7651H8.76016ZM9.18954 17.8991H10.3311L10.4219 17.1625H9.28031L9.18954 17.8991ZM12.3384 12.4776H22.5774L22.6472 11.919H12.4082L12.3384 12.4776ZM15.8433 24.1863L17.1839 23.3764H14.4225L15.8433 24.1863ZM15.9585 17.2428H17.2781L17.3479 16.6842H16.0283L15.9585 17.2428ZM15.6897 19.4456H17.0093L17.0791 18.8626H15.7595L15.6897 19.4456ZM15.4139 21.6763H16.7335L16.8068 21.0689H15.4872L15.4139 21.6763ZM23.8446 19.4979L24.1064 17.3684H22.7903L22.5914 18.9917L23.0626 18.6636C23.1534 18.7474 23.2791 18.8835 23.4432 19.0685C23.5339 19.1523 23.6701 19.2954 23.8481 19.4979H23.8446Z" fill="#94FF6D"/>
</g>
<defs>
<filter id="filter0_d_126_727" x="0.872803" y="0" width="33.2543" height="32" filterUnits="userSpaceOnUse" color-interpolation-filters="sRGB">
<feFlood flood-opacity="0" result="BackgroundImageFix"/>
<feColorMatrix in="SourceAlpha" type="matrix" values="0 0 0 0 0 0 0 0 0 0 0 0 0 0 0 0 0 0 127 0" result="hardAlpha"/>
<feOffset dx="1" dy="1"/>
<feGaussianBlur stdDeviation="2"/>
<feComposite in2="hardAlpha" operator="out"/>
<feColorMatrix type="matrix" values="0 0 0 0 0.583538 0 0 0 0 1 0 0 0 0 0.431284 0 0 0 0.66 0"/>
<feBlend mode="normal" in2="BackgroundImageFix" result="effect1_dropShadow_126_727"/>
<feBlend mode="normal" in="SourceGraphic" in2="effect1_dropShadow_126_727" result="shape"/>
</filter>
</defs>
</svg>
